# Blender v2.79 (sub 0) OBJ File: 'alpha_room.blend'
# www.blender.org
o alpha_bed
v 0.921838 0.310980 -1.871572
v 0.921838 0.310980 1.871573
v -0.921839 0.310980 1.871572
v -0.921838 0.310980 -1.871573
v 0.957217 0.691816 -1.904629
v 0.957214 0.691816 1.904632
v -0.957217 0.691816 1.904630
v -0.957216 0.691816 -1.904631
v 0.957216 0.310980 -1.904630
v 0.957216 0.310980 1.904631
v -0.957215 0.310980 -1.904631
v -0.957216 0.310980 1.904630
v 0.921838 0.310980 -1.771569
v 0.921838 0.310980 1.756778
v 0.821832 0.310980 -1.871573
v -0.821831 0.310980 -1.871573
v 0.821831 0.310980 1.871573
v -0.821832 0.310980 1.871572
v -0.921838 0.310980 1.756775
v -0.921838 0.310980 -1.771571
v 0.821831 0.310980 -1.771570
v -0.821831 0.310980 -1.771571
v 0.821831 0.310980 1.756777
v -0.821831 0.310980 1.756776
v 0.916838 0.000001 1.762517
v 0.916838 0.000001 1.865833
v -0.826831 0.000001 -1.866573
v -0.916838 0.000001 -1.866573
v -0.826833 0.000001 1.865833
v -0.916838 0.000001 1.865832
v -0.916838 0.000001 -1.776572
v 0.916838 0.000001 -1.866572
v 0.916838 0.000001 -1.776569
v 0.826832 0.000001 -1.866572
v 0.826831 0.000001 1.865833
v -0.916838 0.000001 1.762515
v -0.826831 0.000001 -1.776571
v 0.826832 0.000001 -1.776570
v -0.826832 0.000001 1.762516
v 0.826832 0.000001 1.762517
vn 0.9999 -0.0161 0.0000
vn 0.0000 1.0000 0.0000
vn 1.0000 -0.0000 0.0000
vn 0.0000 -0.0000 1.0000
vn -1.0000 -0.0000 -0.0000
vn 0.0000 0.0000 -1.0000
vn 0.0000 -1.0000 0.0000
vn -0.9999 -0.0161 -0.0000
vn 0.0000 -0.0161 -0.9999
vn -0.0000 -0.0161 0.9999
vn -0.0000 -0.0185 0.9998
vn 0.0000 -0.0185 -0.9998
s off
f 13//1 32//1 1//1
f 5//2 7//2 6//2
f 5//3 10//3 9//3
f 6//4 12//4 10//4
f 7//5 11//5 12//5
f 9//6 8//6 5//6
f 14//7 9//7 10//7
f 15//7 11//7 9//7
f 18//7 10//7 12//7
f 19//7 12//7 11//7
f 2//1 25//1 14//1
f 22//7 19//7 20//7
f 15//8 38//8 21//8
f 21//7 16//7 15//7
f 13//7 23//7 21//7
f 21//7 24//7 22//7
f 3//8 36//8 30//8
f 17//7 24//7 23//7
f 29//7 36//7 39//7
f 27//7 31//7 28//7
f 32//7 38//7 34//7
f 25//7 35//7 40//7
f 22//1 27//1 16//1
f 4//9 27//9 28//9
f 20//10 37//10 22//10
f 3//11 29//11 18//11
f 21//10 33//10 13//10
f 1//9 34//9 15//9
f 4//8 31//8 20//8
f 23//8 35//8 17//8
f 24//12 36//12 19//12
f 17//11 26//11 2//11
f 18//1 39//1 24//1
f 14//12 40//12 23//12
f 13//1 33//1 32//1
f 5//2 8//2 7//2
f 5//3 6//3 10//3
f 6//4 7//4 12//4
f 7//5 8//5 11//5
f 9//6 11//6 8//6
f 10//7 2//7 14//7
f 14//7 13//7 9//7
f 1//7 9//7 13//7
f 9//7 1//7 15//7
f 15//7 16//7 11//7
f 4//7 11//7 16//7
f 12//7 3//7 18//7
f 18//7 17//7 10//7
f 2//7 10//7 17//7
f 11//7 4//7 20//7
f 20//7 19//7 11//7
f 3//7 12//7 19//7
f 2//1 26//1 25//1
f 22//7 24//7 19//7
f 15//8 34//8 38//8
f 21//7 22//7 16//7
f 13//7 14//7 23//7
f 21//7 23//7 24//7
f 3//8 19//8 36//8
f 17//7 18//7 24//7
f 29//7 30//7 36//7
f 27//7 37//7 31//7
f 32//7 33//7 38//7
f 25//7 26//7 35//7
f 22//1 37//1 27//1
f 4//9 16//9 27//9
f 20//10 31//10 37//10
f 3//11 30//11 29//11
f 21//10 38//10 33//10
f 1//9 32//9 34//9
f 4//8 28//8 31//8
f 23//8 40//8 35//8
f 24//12 39//12 36//12
f 17//11 35//11 26//11
f 18//1 29//1 39//1
f 14//12 25//12 40//12
o alpha_lamp.post
v 0.044777 0.083994 -0.224971
v 0.000024 0.083994 -0.229378
v 0.000024 0.152710 -0.029877
v 0.005856 0.152710 -0.029302
v 0.011464 0.152710 -0.027601
v 0.016632 0.152710 -0.024838
v 0.021163 0.152710 -0.021121
v 0.024880 0.152710 -0.016591
v 0.027643 0.152710 -0.011422
v 0.029344 0.152710 -0.005814
v 0.029919 0.152710 0.000018
v 0.029344 0.152710 0.005851
v 0.027643 0.152710 0.011459
v 0.024880 0.152710 0.016627
v 0.021163 0.152710 0.021157
v 0.016632 0.152710 0.024875
v 0.011464 0.152710 0.027637
v 0.005856 0.152710 0.029339
v 0.000024 0.152710 0.029913
v -0.005809 0.152710 0.029339
v -0.011417 0.152710 0.027637
v -0.016585 0.152710 0.024875
v -0.021115 0.152710 0.021157
v -0.024833 0.152710 0.016627
v -0.027596 0.152710 0.011459
v -0.029297 0.152710 0.005851
v -0.029871 0.152710 0.000018
v -0.029297 0.152710 -0.005814
v -0.027596 0.152710 -0.011422
v -0.024833 0.152710 -0.016591
v -0.021115 0.152710 -0.021121
v -0.016585 0.152710 -0.024838
v -0.011417 0.152710 -0.027601
v -0.005809 0.152710 -0.029302
v 0.087810 0.083994 -0.211916
v 0.127470 0.083994 -0.190717
v 0.162232 0.083994 -0.162188
v 0.190760 0.083994 -0.127428
v 0.211959 0.083994 -0.087766
v 0.225013 0.083994 -0.044733
v 0.229421 0.083994 0.000020
v 0.225013 0.083994 0.044773
v 0.211959 0.083994 0.087806
v 0.190760 0.083994 0.127466
v 0.162232 0.083994 0.162228
v 0.127470 0.083994 0.190755
v 0.087810 0.083994 0.211954
v 0.044777 0.083994 0.225009
v 0.000024 0.083994 0.229416
v -0.044730 0.083994 0.225009
v -0.087763 0.083994 0.211954
v -0.127422 0.083994 0.190755
v -0.162185 0.083994 0.162228
v -0.190713 0.083994 0.127466
v -0.211912 0.083994 0.087806
v -0.224966 0.083994 0.044773
v -0.229373 0.083994 0.000020
v -0.224966 0.083994 -0.044733
v -0.211911 0.083994 -0.087768
v -0.190713 0.083994 -0.127428
v -0.162184 0.083994 -0.162188
v -0.127422 0.083994 -0.190717
v -0.087762 0.083994 -0.211916
v -0.044729 0.083994 -0.224971
v 0.044777 -0.000016 -0.224971
v 0.000024 -0.000016 -0.229378
v 0.087810 -0.000016 -0.211916
v 0.127470 -0.000016 -0.190717
v 0.162232 -0.000016 -0.162188
v 0.190760 -0.000016 -0.127428
v 0.211959 -0.000016 -0.087766
v 0.225013 -0.000016 -0.044733
v 0.229421 -0.000016 0.000020
v 0.225013 -0.000016 0.044773
v 0.211959 -0.000016 0.087806
v 0.190760 -0.000016 0.127466
v 0.162232 -0.000016 0.162228
v 0.127470 -0.000016 0.190755
v 0.087810 -0.000016 0.211954
v 0.044777 -0.000016 0.225009
v 0.000024 -0.000016 0.229416
v -0.044730 -0.000016 0.225009
v -0.087763 -0.000016 0.211954
v -0.127422 -0.000016 0.190755
v -0.162185 -0.000016 0.162228
v -0.190713 -0.000016 0.127466
v -0.211912 -0.000016 0.087806
v -0.224966 -0.000016 0.044773
v -0.229373 -0.000016 0.000020
v -0.224966 -0.000016 -0.044733
v -0.211911 -0.000016 -0.087768
v -0.190713 -0.000016 -0.127428
v -0.162184 -0.000016 -0.162188
v -0.127422 -0.000016 -0.190717
v -0.087762 -0.000016 -0.211916
v -0.044729 -0.000016 -0.224971
v 0.000024 0.020719 0.000020
v 0.005856 1.937708 -0.029302
v 0.000024 1.937708 -0.029877
v 0.011464 1.937708 -0.027601
v 0.016632 1.937708 -0.024838
v 0.021163 1.937708 -0.021121
v 0.024880 1.937708 -0.016591
v 0.027643 1.937708 -0.011422
v 0.029344 1.937708 -0.005814
v 0.029919 1.937708 0.000018
v 0.029344 1.937708 0.005851
v 0.027643 1.937708 0.011459
v 0.024880 1.937708 0.016627
v 0.021163 1.937708 0.021157
v 0.016632 1.937708 0.024875
v 0.011464 1.937708 0.027637
v 0.005856 1.937708 0.029339
v 0.000024 1.937708 0.029913
v -0.005809 1.937708 0.029339
v -0.011417 1.937708 0.027637
v -0.016585 1.937708 0.024875
v -0.021115 1.937708 0.021157
v -0.024833 1.937708 0.016627
v -0.027596 1.937708 0.011459
v -0.029297 1.937708 0.005851
v -0.029871 1.937708 0.000018
v -0.029297 1.937708 -0.005814
v -0.027596 1.937708 -0.011422
v -0.024833 1.937708 -0.016591
v -0.021115 1.937708 -0.021121
v -0.016585 1.937708 -0.024838
v -0.011417 1.937708 -0.027601
v -0.005809 1.937708 -0.029302
v 0.000024 1.937708 0.000018
vn -0.0321 0.9450 0.3255
vn 0.7730 0.0000 0.6344
vn -0.3255 0.9450 -0.0321
vn 0.2885 0.9450 -0.1542
vn 0.0321 0.9450 -0.3255
vn -0.0980 0.0000 0.9952
vn 0.1542 0.9450 0.2884
vn -0.2884 0.9450 0.1542
vn -0.1542 0.9450 -0.2885
vn -0.8819 0.0000 0.4714
vn 0.1542 0.9450 -0.2885
vn 0.2884 0.9450 0.1542
vn -0.1542 0.9450 0.2884
vn -0.8819 0.0000 -0.4714
vn -0.2884 0.9450 -0.1542
vn 0.8819 0.0000 -0.4714
vn 0.3255 0.9450 -0.0321
vn 0.0321 0.9450 0.3255
vn -0.0980 0.0000 -0.9952
vn -0.3255 0.9450 0.0321
vn 0.8819 0.0000 0.4714
vn 0.2528 0.9450 -0.2075
vn -0.0321 0.9450 -0.3255
vn 0.0980 0.0000 0.9952
vn 0.2075 0.9450 0.2528
vn -0.2528 0.9450 0.2075
vn -0.2075 0.9450 -0.2528
vn -0.7730 0.0000 0.6344
vn 0.0950 0.9450 -0.3130
vn 0.3130 0.9450 0.0949
vn -0.0949 0.9450 0.3130
vn -0.9569 0.0000 -0.2903
vn -0.3130 0.9450 -0.0949
vn 0.7730 0.0000 -0.6344
vn 0.3130 0.9450 -0.0949
vn 0.0950 0.9450 0.3130
vn -0.2903 0.0000 -0.9569
vn -0.3130 0.9450 0.0949
vn 0.9569 0.0000 0.2903
vn -0.0950 0.9450 -0.3130
vn 0.2075 0.9450 -0.2528
vn 0.2903 0.0000 0.9569
vn 0.2528 0.9450 0.2075
vn -0.2075 0.9450 0.2528
vn 0.2903 0.0000 -0.9569
vn 0.9569 0.0000 -0.2903
vn -0.6344 0.0000 0.7730
vn 0.3255 0.9450 0.0321
vn -0.2528 0.9450 -0.2075
vn -0.0574 -0.9959 -0.0699
vn -0.9569 0.0000 0.2903
vn 0.6344 0.0000 -0.7730
vn -0.7730 0.0000 -0.6344
vn 0.0980 0.0000 -0.9952
vn 0.9952 0.0000 0.0980
vn -0.9952 0.0000 -0.0980
vn 0.4714 0.0000 0.8819
vn -0.4714 0.0000 -0.8819
vn 0.4714 0.0000 -0.8819
vn -0.4714 0.0000 0.8819
vn 0.9952 0.0000 -0.0980
vn -0.9952 0.0000 0.0980
vn 0.6344 0.0000 0.7730
vn -0.6344 0.0000 -0.7730
vn -0.2903 0.0000 0.9569
vn 0.0866 -0.9959 0.0263
vn -0.0699 -0.9959 -0.0574
vn 0.0900 -0.9959 0.0089
vn -0.0798 -0.9959 -0.0426
vn 0.0900 -0.9959 -0.0089
vn -0.0866 -0.9959 -0.0263
vn 0.0866 -0.9959 -0.0263
vn -0.0900 -0.9959 -0.0089
vn 0.0798 -0.9959 -0.0426
vn -0.0900 -0.9959 0.0089
vn 0.0699 -0.9959 -0.0574
vn -0.0866 -0.9959 0.0263
vn 0.0574 -0.9959 -0.0699
vn -0.0798 -0.9959 0.0426
vn 0.0426 -0.9959 -0.0798
vn 0.0089 -0.9959 0.0900
vn -0.0699 -0.9959 0.0574
vn 0.0263 -0.9959 -0.0866
vn 0.0263 -0.9959 0.0866
vn -0.0574 -0.9959 0.0699
vn 0.0089 -0.9959 -0.0900
vn 0.0426 -0.9959 0.0798
vn -0.0426 -0.9959 0.0798
vn -0.0089 -0.9959 -0.0900
vn 0.0574 -0.9959 0.0699
vn -0.0263 -0.9959 0.0866
vn -0.0263 -0.9959 -0.0866
vn 0.0699 -0.9959 0.0574
vn -0.0089 -0.9959 0.0900
vn -0.0426 -0.9959 -0.0798
vn 0.0798 -0.9959 0.0426
vn 0.0000 1.0000 0.0000
vn -0.0950 0.9450 0.3130
vn 0.0949 0.9450 0.3130
s off
f 60//13 89//13 59//13
f 54//14 150//14 55//14
f 67//15 98//15 97//15
f 48//16 79//16 78//16
f 44//17 42//17 43//17
f 59//18 155//18 60//18
f 56//19 87//19 86//19
f 64//20 95//20 94//20
f 72//21 103//21 102//21
f 64//22 160//22 65//22
f 46//23 75//23 45//23
f 54//24 83//24 53//24
f 62//25 91//25 61//25
f 69//26 165//26 70//26
f 70//27 99//27 69//27
f 48//28 144//28 49//28
f 51//29 80//29 50//29
f 58//30 89//30 88//30
f 169//31 43//31 74//31
f 66//32 97//32 96//32
f 148//33 54//33 53//33
f 48//34 77//34 47//34
f 74//35 42//35 104//35
f 153//36 59//36 58//36
f 55//37 86//37 85//37
f 64//38 93//38 63//38
f 72//39 101//39 71//39
f 158//40 64//40 63//40
f 44//41 75//41 41//41
f 53//42 82//42 52//42
f 60//43 91//43 90//43
f 163//44 69//44 68//44
f 69//45 98//45 68//45
f 142//46 48//46 47//46
f 50//47 79//47 49//47
f 58//48 87//48 57//48
f 168//49 74//49 73//49
f 65//50 96//50 95//50
f 147//51 53//51 52//51
f 74//52 103//52 73//52
f 46//53 77//53 76//53
f 152//54 58//54 57//54
f 55//55 84//55 54//55
f 63//56 92//56 62//56
f 44//57 140//57 45//57
f 80//58 111//58 79//58
f 157//59 63//59 62//59
f 52//60 81//60 51//60
f 70//61 101//61 100//61
f 117//62 118//62 137//62
f 88//54 119//54 87//54
f 96//63 127//63 95//63
f 77//64 108//64 76//64
f 85//14 116//14 84//14
f 93//59 124//59 92//59
f 101//65 132//65 100//65
f 41//66 106//66 42//66
f 82//67 113//67 81//67
f 90//18 121//18 89//18
f 98//68 129//68 97//68
f 79//28 110//28 78//28
f 87//69 118//69 86//69
f 95//22 126//22 94//22
f 103//70 134//70 102//70
f 76//71 107//71 75//71
f 84//33 115//33 83//33
f 92//72 123//72 91//72
f 100//26 131//26 99//26
f 81//73 112//73 80//73
f 89//36 120//36 88//36
f 97//74 128//74 96//74
f 78//46 109//46 77//46
f 86//75 117//75 85//75
f 94//40 125//40 93//40
f 102//76 133//76 101//76
f 75//57 105//57 41//57
f 83//51 114//51 82//51
f 91//77 122//77 90//77
f 42//31 136//31 104//31
f 99//44 130//44 98//44
f 104//49 135//49 103//49
f 130//78 131//78 137//78
f 116//79 117//79 137//79
f 129//80 130//80 137//80
f 115//81 116//81 137//81
f 128//82 129//82 137//82
f 114//83 115//83 137//83
f 127//84 128//84 137//84
f 113//85 114//85 137//85
f 126//86 127//86 137//86
f 112//87 113//87 137//87
f 125//88 126//88 137//88
f 111//89 112//89 137//89
f 124//90 125//90 137//90
f 110//91 111//91 137//91
f 123//92 124//92 137//92
f 136//93 106//93 137//93
f 109//94 110//94 137//94
f 122//95 123//95 137//95
f 135//96 136//96 137//96
f 108//97 109//97 137//97
f 121//98 122//98 137//98
f 134//99 135//99 137//99
f 107//100 108//100 137//100
f 120//101 121//101 137//101
f 133//102 134//102 137//102
f 105//103 107//103 137//103
f 119//104 120//104 137//104
f 132//105 133//105 137//105
f 106//106 105//106 137//106
f 118//107 119//107 137//107
f 131//108 132//108 137//108
f 45//71 141//71 46//71
f 141//64 47//64 46//64
f 49//58 145//58 50//58
f 50//73 146//73 51//73
f 146//67 52//67 51//67
f 55//75 151//75 56//75
f 151//69 57//69 56//69
f 60//77 156//77 61//77
f 156//72 62//72 61//72
f 65//63 161//63 66//63
f 66//74 162//74 67//74
f 162//68 68//68 67//68
f 70//65 166//65 71//65
f 71//76 167//76 72//76
f 167//70 73//70 72//70
f 143//109 142//109 170//109
f 152//109 151//109 170//109
f 138//109 139//109 170//109
f 161//109 160//109 170//109
f 139//109 169//109 170//109
f 148//109 147//109 170//109
f 157//109 156//109 170//109
f 166//109 165//109 170//109
f 144//109 143//109 170//109
f 153//109 152//109 170//109
f 162//109 161//109 170//109
f 140//109 138//109 170//109
f 149//109 148//109 170//109
f 158//109 157//109 170//109
f 167//109 166//109 170//109
f 145//109 144//109 170//109
f 154//109 153//109 170//109
f 163//109 162//109 170//109
f 141//109 140//109 170//109
f 150//109 149//109 170//109
f 159//109 158//109 170//109
f 168//109 167//109 170//109
f 146//109 145//109 170//109
f 155//109 154//109 170//109
f 164//109 163//109 170//109
f 142//109 141//109 170//109
f 151//109 150//109 170//109
f 160//109 159//109 170//109
f 169//109 168//109 170//109
f 147//109 146//109 170//109
f 156//109 155//109 170//109
f 165//109 164//109 170//109
f 43//66 138//66 44//66
f 60//13 90//13 89//13
f 54//14 149//14 150//14
f 67//15 68//15 98//15
f 48//16 49//16 79//16
f 44//17 41//17 42//17
f 59//18 154//18 155//18
f 56//19 57//19 87//19
f 64//20 65//20 95//20
f 72//21 73//21 103//21
f 64//22 159//22 160//22
f 46//23 76//23 75//23
f 54//24 84//24 83//24
f 62//25 92//25 91//25
f 69//26 164//26 165//26
f 70//27 100//27 99//27
f 48//28 143//28 144//28
f 51//29 81//29 80//29
f 58//30 59//30 89//30
f 169//31 139//31 43//31
f 66//32 67//32 97//32
f 148//33 149//33 54//33
f 48//34 78//34 77//34
f 74//35 43//35 42//35
f 153//36 154//36 59//36
f 55//37 56//37 86//37
f 64//38 94//38 93//38
f 72//39 102//39 101//39
f 158//40 159//40 64//40
f 44//41 45//41 75//41
f 53//42 83//42 82//42
f 60//110 61//110 91//110
f 163//44 164//44 69//44
f 69//45 99//45 98//45
f 142//46 143//46 48//46
f 50//47 80//47 79//47
f 58//111 88//111 87//111
f 168//49 169//49 74//49
f 65//50 66//50 96//50
f 147//51 148//51 53//51
f 74//52 104//52 103//52
f 46//53 47//53 77//53
f 152//54 153//54 58//54
f 55//55 85//55 84//55
f 63//56 93//56 92//56
f 44//57 138//57 140//57
f 80//58 112//58 111//58
f 157//59 158//59 63//59
f 52//60 82//60 81//60
f 70//61 71//61 101//61
f 88//54 120//54 119//54
f 96//63 128//63 127//63
f 77//64 109//64 108//64
f 85//14 117//14 116//14
f 93//59 125//59 124//59
f 101//65 133//65 132//65
f 41//66 105//66 106//66
f 82//67 114//67 113//67
f 90//18 122//18 121//18
f 98//68 130//68 129//68
f 79//28 111//28 110//28
f 87//69 119//69 118//69
f 95//22 127//22 126//22
f 103//70 135//70 134//70
f 76//71 108//71 107//71
f 84//33 116//33 115//33
f 92//72 124//72 123//72
f 100//26 132//26 131//26
f 81//73 113//73 112//73
f 89//36 121//36 120//36
f 97//74 129//74 128//74
f 78//46 110//46 109//46
f 86//75 118//75 117//75
f 94//40 126//40 125//40
f 102//76 134//76 133//76
f 75//57 107//57 105//57
f 83//51 115//51 114//51
f 91//77 123//77 122//77
f 42//31 106//31 136//31
f 99//44 131//44 130//44
f 104//49 136//49 135//49
f 45//71 140//71 141//71
f 141//64 142//64 47//64
f 49//58 144//58 145//58
f 50//73 145//73 146//73
f 146//67 147//67 52//67
f 55//75 150//75 151//75
f 151//69 152//69 57//69
f 60//77 155//77 156//77
f 156//72 157//72 62//72
f 65//63 160//63 161//63
f 66//74 161//74 162//74
f 162//68 163//68 68//68
f 70//65 165//65 166//65
f 71//76 166//76 167//76
f 167//70 168//70 73//70
f 43//66 139//66 138//66
o Plane
v -1.000000 0.000000 1.000000
v 1.000000 0.000000 1.000000
v -1.000000 0.000000 -1.000000
v 1.000000 0.000000 -1.000000
vn 0.0000 1.0000 0.0000
s off
f 172//112 173//112 171//112
f 172//112 174//112 173//112
o alpha_lamp.shade
v -0.000378 1.831087 -0.372563
v -0.000378 2.319441 -0.205425
v 0.071999 1.831087 -0.365434
v 0.039391 2.319441 -0.201507
v 0.141594 1.831087 -0.344323
v 0.077633 2.319441 -0.189907
v 0.205733 1.831087 -0.310040
v 0.112876 2.319441 -0.171069
v 0.261952 1.831087 -0.263902
v 0.143767 2.319441 -0.145718
v 0.308089 1.831087 -0.207684
v 0.169119 2.319441 -0.114826
v 0.342372 1.831087 -0.143544
v 0.187957 2.319441 -0.079583
v 0.363484 1.831087 -0.073949
v 0.199557 2.319441 -0.041342
v 0.370612 1.831087 -0.001573
v 0.203474 2.319441 -0.001573
v 0.363484 1.831087 0.070804
v 0.199557 2.319441 0.038197
v 0.342372 1.831087 0.140399
v 0.187957 2.319441 0.076438
v 0.308089 1.831087 0.204538
v 0.169119 2.319441 0.111681
v 0.261952 1.831087 0.260757
v 0.143767 2.319441 0.142572
v 0.205733 1.831087 0.306895
v 0.112876 2.319441 0.167924
v 0.141594 1.831087 0.341177
v 0.077633 2.319441 0.186762
v 0.071998 1.831087 0.362289
v 0.039391 2.319441 0.198362
v -0.000378 1.831087 0.369417
v -0.000378 2.319441 0.202279
v -0.072755 1.831087 0.362289
v -0.040148 2.319441 0.198362
v -0.142350 1.831087 0.341177
v -0.078389 2.319441 0.186762
v -0.206489 1.831087 0.306894
v -0.113632 2.319441 0.167924
v -0.262708 1.831087 0.260757
v -0.144523 2.319441 0.142572
v -0.308845 1.831087 0.204538
v -0.169875 2.319441 0.111681
v -0.343128 1.831087 0.140399
v -0.188713 2.319441 0.076438
v -0.364240 1.831087 0.070804
v -0.200313 2.319441 0.038197
v -0.371368 1.831087 -0.001573
v -0.204230 2.319441 -0.001573
v -0.364240 1.831087 -0.073950
v -0.200313 2.319441 -0.041342
v -0.343128 1.831087 -0.143545
v -0.188712 2.319441 -0.079583
v -0.308845 1.831087 -0.207684
v -0.169874 2.319441 -0.114827
v -0.262707 1.831087 -0.263902
v -0.144523 2.319441 -0.145718
v -0.206489 1.831087 -0.310040
v -0.113632 2.319441 -0.171069
v -0.142349 1.831087 -0.344323
v -0.078389 2.319441 -0.189907
v -0.072754 1.831087 -0.365434
v -0.040147 2.319441 -0.201508
vn 0.0928 0.3224 -0.9420
vn 0.2748 0.3224 -0.9058
vn 0.4462 0.3224 -0.8348
vn 0.6005 0.3224 -0.7317
vn 0.7317 0.3224 -0.6005
vn 0.8348 0.3224 -0.4462
vn 0.9058 0.3224 -0.2748
vn 0.9420 0.3224 -0.0928
vn 0.9420 0.3224 0.0928
vn 0.9058 0.3224 0.2748
vn 0.8348 0.3224 0.4462
vn 0.7317 0.3224 0.6005
vn 0.6005 0.3224 0.7317
vn 0.4462 0.3224 0.8348
vn 0.2748 0.3224 0.9058
vn 0.0928 0.3224 0.9420
vn -0.0928 0.3224 0.9420
vn -0.2748 0.3224 0.9058
vn -0.4462 0.3224 0.8348
vn -0.6005 0.3224 0.7317
vn -0.7317 0.3224 0.6005
vn -0.8348 0.3224 0.4462
vn -0.9058 0.3224 0.2748
vn -0.9420 0.3224 0.0928
vn -0.9420 0.3224 -0.0928
vn -0.9058 0.3224 -0.2748
vn -0.8348 0.3224 -0.4462
vn -0.7317 0.3224 -0.6005
vn -0.6005 0.3224 -0.7317
vn -0.4462 0.3224 -0.8348
vn -0.2748 0.3224 -0.9058
vn -0.0928 0.3224 -0.9420
s off
f 175//113 178//113 177//113
f 178//114 179//114 177//114
f 180//115 181//115 179//115
f 182//116 183//116 181//116
f 184//117 185//117 183//117
f 185//118 188//118 187//118
f 187//119 190//119 189//119
f 190//120 191//120 189//120
f 192//121 193//121 191//121
f 194//122 195//122 193//122
f 196//123 197//123 195//123
f 197//124 200//124 199//124
f 199//125 202//125 201//125
f 201//126 204//126 203//126
f 204//127 205//127 203//127
f 206//128 207//128 205//128
f 208//129 209//129 207//129
f 209//130 212//130 211//130
f 212//131 213//131 211//131
f 214//132 215//132 213//132
f 216//133 217//133 215//133
f 218//134 219//134 217//134
f 220//135 221//135 219//135
f 222//136 223//136 221//136
f 224//137 225//137 223//137
f 225//138 228//138 227//138
f 228//139 229//139 227//139
f 229//140 232//140 231//140
f 232//141 233//141 231//141
f 234//142 235//142 233//142
f 235//143 238//143 237//143
f 238//144 175//144 237//144
f 175//113 176//113 178//113
f 178//114 180//114 179//114
f 180//115 182//115 181//115
f 182//116 184//116 183//116
f 184//117 186//117 185//117
f 185//118 186//118 188//118
f 187//119 188//119 190//119
f 190//120 192//120 191//120
f 192//121 194//121 193//121
f 194//122 196//122 195//122
f 196//123 198//123 197//123
f 197//124 198//124 200//124
f 199//125 200//125 202//125
f 201//126 202//126 204//126
f 204//127 206//127 205//127
f 206//128 208//128 207//128
f 208//129 210//129 209//129
f 209//130 210//130 212//130
f 212//131 214//131 213//131
f 214//132 216//132 215//132
f 216//133 218//133 217//133
f 218//134 220//134 219//134
f 220//135 222//135 221//135
f 222//136 224//136 223//136
f 224//137 226//137 225//137
f 225//138 226//138 228//138
f 228//139 230//139 229//139
f 229//140 230//140 232//140
f 232//141 234//141 233//141
f 234//142 236//142 235//142
f 235//143 236//143 238//143
f 238//144 176//144 175//144
o alpha_pillow
v -0.546340 0.000001 0.319279
v -0.546340 0.030801 0.319279
v -0.559380 0.000001 -0.297239
v -0.559380 0.030801 -0.297239
v 0.562734 -0.000082 0.289214
v 0.562734 0.031662 0.289214
v 0.548797 -0.000082 -0.314072
v 0.548797 0.031662 -0.314072
v 0.389411 0.000052 -0.328236
v 0.224332 0.000245 -0.337640
v -0.007825 0.000029 -0.346897
v -0.245519 -0.000050 -0.338423
v -0.401207 -0.000207 -0.322396
v -0.401207 0.086535 -0.322396
v -0.245519 0.119630 -0.338424
v -0.007825 0.136671 -0.346897
v 0.224332 0.115761 -0.337640
v 0.389411 0.080914 -0.328236
v -0.387245 -0.000207 0.337726
v -0.221773 -0.000050 0.341346
v 0.010731 0.000029 0.345488
v 0.248771 0.000245 0.331900
v 0.404852 0.000052 0.310089
v 0.404852 0.080914 0.310089
v 0.248771 0.115761 0.331900
v 0.010731 0.136671 0.345488
v -0.221773 0.119630 0.341346
v -0.387245 0.086535 0.337726
vn -0.9998 0.0000 0.0211
vn 0.0885 0.0000 -0.9961
vn 0.9997 0.0000 -0.0231
vn -0.1152 0.0000 0.9933
vn -0.0008 -1.0000 0.0000
vn -0.3313 0.9435 0.0070
vn 0.2970 0.9549 -0.0069
vn 0.2068 0.9784 -0.0050
vn 0.0873 0.9962 -0.0032
vn -0.0731 0.9973 0.0020
vn -0.2072 0.9783 0.0072
vn -0.0013 -1.0000 0.0000
vn 0.0010 -1.0000 -0.0000
vn 0.0003 -1.0000 -0.0000
vn 0.0009 -1.0000 -0.0000
vn -0.0012 -1.0000 0.0000
vn 0.1311 0.0000 0.9914
vn 0.1384 0.0000 0.9904
vn 0.0570 -0.0000 0.9984
vn -0.0178 0.0000 0.9998
vn -0.0219 0.0000 0.9998
vn -0.1571 0.0000 -0.9876
vn -0.1024 0.0000 -0.9947
vn -0.0356 -0.0000 -0.9994
vn 0.0398 0.0000 -0.9992
vn 0.0569 0.0000 -0.9984
vn 0.2958 0.9552 -0.0072
vn 0.2168 0.9762 -0.0079
vn 0.0898 0.9960 -0.0024
vn -0.0714 0.9974 0.0025
vn -0.1962 0.9806 0.0042
s off
f 240//145 241//145 239//145
f 247//146 246//146 245//146
f 246//147 243//147 245//147
f 257//148 240//148 239//148
f 245//149 261//149 247//149
f 242//150 266//150 252//150
f 246//151 262//151 244//151
f 255//152 262//152 256//152
f 255//153 264//153 263//153
f 254//154 265//154 264//154
f 252//155 265//155 253//155
f 251//156 239//156 241//156
f 251//157 258//157 257//157
f 249//158 258//158 250//158
f 248//159 259//159 249//159
f 248//160 261//160 260//160
f 244//161 261//161 243//161
f 262//162 260//162 261//162
f 263//163 259//163 260//163
f 259//164 265//164 258//164
f 258//165 266//165 257//165
f 242//166 251//166 241//166
f 252//167 250//167 251//167
f 253//168 249//168 250//168
f 249//169 255//169 248//169
f 248//170 256//170 247//170
f 240//145 242//145 241//145
f 247//146 256//146 246//146
f 246//147 244//147 243//147
f 257//148 266//148 240//148
f 245//149 243//149 261//149
f 242//150 240//150 266//150
f 246//171 256//171 262//171
f 255//172 263//172 262//172
f 255//173 254//173 264//173
f 254//174 253//174 265//174
f 252//175 266//175 265//175
f 251//156 257//156 239//156
f 251//157 250//157 258//157
f 249//158 259//158 258//158
f 248//159 260//159 259//159
f 248//160 247//160 261//160
f 244//161 262//161 261//161
f 262//162 263//162 260//162
f 263//163 264//163 259//163
f 259//164 264//164 265//164
f 258//165 265//165 266//165
f 242//166 252//166 251//166
f 252//167 253//167 250//167
f 253//168 254//168 249//168
f 249//169 254//169 255//169
f 248//170 255//170 256//170
